<svg width="13" height="23" viewBox="0 0 13 23" fill="none" xmlns="http://www.w3.org/2000/svg">
<path fill-rule="evenodd" clip-rule="evenodd" d="M0.496308 12.7426C0.178522 12.4186 0 11.9793 0 11.5212C0 11.0632 0.178522 10.6238 0.496308 10.2999L10.0856 0.527387C10.242 0.362393 10.429 0.230787 10.6358 0.140251C10.8426 0.0497139 11.0651 0.00205845 11.2902 6.52243e-05C11.5152 -0.001928 11.7384 0.0417813 11.9468 0.128642C12.1551 0.215502 12.3444 0.343775 12.5035 0.505975C12.6627 0.668175 12.7885 0.861054 12.8738 1.07336C12.959 1.28566 13.0019 1.51314 12.9999 1.74252C12.998 1.97189 12.9512 2.19858 12.8624 2.40934C12.7735 2.6201 12.6444 2.81072 12.4825 2.97008L4.09166 11.5212L12.4825 20.0724C12.7913 20.3982 12.9621 20.8346 12.9583 21.2875C12.9544 21.7405 12.7761 22.1737 12.4619 22.494C12.1476 22.8143 11.7224 22.996 11.2779 22.9999C10.8335 23.0039 10.4053 22.8297 10.0856 22.5151L0.496308 12.7426Z" fill="black"/>
</svg>
